# xmcd
#
# Track frame offsets:
#	180
#	17663
#	34461
#	69393
#	88917
#	116096
#	137616
#	154100
#	171726
#	195401
#	222177
#	257448
#	280802
#	298576
#
# Disc length: 4313 seconds
#
# Revision: 6
# Processed by: cddbd v1.5PL3 Copyright (c) Steve Scherf et al.
# Submitted via: EasyCDDAExtractor 6.2.0.3
#
DISCID=d110d70e
DTITLE=Manowar - The Hell of Steel
DYEAR=1994
DGENRE=Blues
TTITLE0=Fighting the world
TTITLE1=Kings of metal
TTITLE2=The demon's whip
TTITLE3=The warriors prayer
TTITLE4=Defender
TTITLE5=The crown and the ring
TTITLE6=Blow your speakers
TTITLE7=Metal warriors
TTITLE8=Black wind, fire and steel
TTITLE9=Hail and kill
TTITLE10=The power of thy sword
TTITLE11=Herz aus stahl
TTITLE12=Kingdom come
TTITLE13=Master of the wind
EXTD=
EXTT0=
EXTT1=
EXTT2=
EXTT3=
EXTT4=
EXTT5=
EXTT6=
EXTT7=
EXTT8=
EXTT9=
EXTT10=
EXTT11=
EXTT12=
EXTT13=
PLAYORDER=
